<svg xmlns="http://www.w3.org/2000/svg" viewBox="0 0 419.35 87.71"><title>Logo</title><g id="Layer_2" data-name="Layer 2"><g id="Layer_1-2" data-name="Layer 1"><path d="M375.5,0a43.85,43.85,0,1,0,43.85,43.85A43.9,43.9,0,0,0,375.5,0Zm0,64.63a20.77,20.77,0,1,1,20.77-20.77A20.8,20.8,0,0,1,375.5,64.63ZM66,61.14A4.51,4.51,0,0,0,60.53,59c-3.88,1.6-5.25,2.94-10.16,4.57a20.77,20.77,0,1,1,0-39.46c4.91,1.63,6.28,3,10.16,4.57A4.51,4.51,0,0,0,66,26.57c2.77-4.8,5.76-10,6.52-11.32a4.44,4.44,0,0,0-1-5.43A44,44,0,0,0,45.34,0c-.49,0-1,0-1.48,0a43.85,43.85,0,1,0,0,87.71c.52,0,1,0,1.54,0A44,44,0,0,0,71.47,77.9a4.44,4.44,0,0,0,1-5.43C71.75,71.16,68.75,65.94,66,61.14ZM127.85,1h-7.3A37.16,37.16,0,0,0,83.44,38.13c0,6.23,0,30.71,0,44.12a3,3,0,0,0,3,2.94h17.43a3,3,0,0,0,3-3c0-.72,0-43.68,0-44.1A13.76,13.76,0,0,1,120.55,24.4h7.28a1.91,1.91,0,0,0,1.89-1.91V2.92A1.9,1.9,0,0,0,127.85,1ZM273.51,83.27V63.71a1.91,1.91,0,0,0-1.89-1.91h-7.28a13.76,13.76,0,0,1-13.74-13.73c0-.42,0-43.38,0-44.1a3,3,0,0,0-3-3H230.2a3,3,0,0,0-3,2.94c0,13.41,0,37.89,0,44.12A37.16,37.16,0,0,0,264.33,85.2h7.3A1.9,1.9,0,0,0,273.51,83.27Zm52,0V63.71a1.91,1.91,0,0,0-1.89-1.91h-7.28a13.76,13.76,0,0,1-13.74-13.73c0-.42,0-43.38,0-44.1a3,3,0,0,0-3-3H282.23a3,3,0,0,0-3,2.94c0,13.41,0,37.89,0,44.12A37.16,37.16,0,0,0,316.37,85.2h7.3A1.9,1.9,0,0,0,325.55,83.27ZM176,0C151.85,0,134.5,19.67,134.5,43.85S151.85,87.71,176,87.71l1.58,0a44,44,0,0,0,26.07-9.78,4.44,4.44,0,0,0,1-5.43c-.76-1.31-3.75-6.53-6.52-11.32A4.51,4.51,0,0,0,192.75,59c-3.88,1.6-5.25,2.94-10.16,4.57a20.67,20.67,0,0,1-6.51,1c-8.16,0-14-5.5-16.32-12.36h52.48a4.37,4.37,0,0,0,4.23-3.81,53.07,53.07,0,0,0,.34-5.36C216.8,18.91,200.22,0,176,0ZM159.25,35.51c2-7.71,8-12.43,16.78-12.43s14,4.71,16,12.43Z" fill="#fff"/></g></g></svg>